<?xml version="1.0" encoding="UTF-8" standalone="no"?>
<!-- Created with Inkscape (http://www.inkscape.org/) -->

<svg
   xmlns:dc="http://purl.org/dc/elements/1.1/"
   xmlns:cc="http://creativecommons.org/ns#"
   xmlns:rdf="http://www.w3.org/1999/02/22-rdf-syntax-ns#"
   xmlns:svg="http://www.w3.org/2000/svg"
   xmlns="http://www.w3.org/2000/svg"
   xmlns:sodipodi="http://sodipodi.sourceforge.net/DTD/sodipodi-0.dtd"
   xmlns:inkscape="http://www.inkscape.org/namespaces/inkscape"
   width="210mm"
   height="297mm"
   viewBox="0 0 210 297"
   version="1.1"
   id="svg8"
   sodipodi:docname="Fossil.svg"
   inkscape:version="0.92.3 (2405546, 2018-03-11)">
  <defs
     id="defs2" />
  <sodipodi:namedview
     id="base"
     pagecolor="#ffffff"
     bordercolor="#666666"
     borderopacity="1.0"
     inkscape:pageopacity="0.0"
     inkscape:pageshadow="2"
     inkscape:zoom="2.8"
     inkscape:cx="189.89484"
     inkscape:cy="718.43406"
     inkscape:document-units="mm"
     inkscape:current-layer="layer1"
     showgrid="false"
     inkscape:window-width="1366"
     inkscape:window-height="718"
     inkscape:window-x="0"
     inkscape:window-y="22"
     inkscape:window-maximized="1" />
  <metadata
     id="metadata5">
    <rdf:RDF>
      <cc:Work
         rdf:about="">
        <dc:format>image/svg+xml</dc:format>
        <dc:type
           rdf:resource="http://purl.org/dc/dcmitype/StillImage" />
      </cc:Work>
    </rdf:RDF>
  </metadata>
  <g
     inkscape:label="Ebene 1"
     inkscape:groupmode="layer"
     id="layer1">
    <path
       style="fill:none;stroke:#000000;stroke-width:0.99999994;stroke-opacity:1"
       d="M 208.45703 276.80469 C 191.10867 276.80469 177.14258 290.77078 177.14258 308.11914 L 177.14258 415.57031 C 177.14258 421.16758 178.60404 426.40763 181.15625 430.94531 L 195.13672 416.96289 L 206.73438 428.56055 L 192.66211 442.63086 C 197.29481 445.33194 202.68637 446.88477 208.45703 446.88477 L 315.90625 446.88477 C 333.25461 446.88477 347.2207 432.91867 347.2207 415.57031 L 347.2207 308.11914 C 347.2207 290.77078 333.25461 276.80469 315.90625 276.80469 L 208.45703 276.80469 z "
       transform="scale(0.26458333)"
       id="rect815" />
    <path
       style="fill:none;stroke:#000000;stroke-width:0.99999994;stroke-opacity:1"
       d="M 262.18164 312.71094 A 49.133858 49.133858 0 0 0 213.04883 361.8457 A 49.133858 49.133858 0 0 0 222.07031 390.11719 L 225.5 386.6875 L 237.05273 398.24023 L 233.5625 401.73047 A 49.133858 49.133858 0 0 0 262.18164 410.97852 A 49.133858 49.133858 0 0 0 311.31641 361.8457 A 49.133858 49.133858 0 0 0 262.18164 312.71094 z "
       transform="scale(0.26458333)"
       id="path817" />
    <rect
       style="fill:none;stroke:#000000;stroke-width:0.26458332;stroke-opacity:1"
       id="rect4522"
       width="4.3000002"
       height="17.907059"
       x="97.985504"
       y="48.063381"
       transform="rotate(45)" />
  </g>
</svg>
