<?xml version="1.0" encoding="UTF-8" standalone="no"?>
<!-- Created with Inkscape (http://www.inkscape.org/) -->

<svg
   xmlns:dc="http://purl.org/dc/elements/1.1/"
   xmlns:cc="http://creativecommons.org/ns#"
   xmlns:rdf="http://www.w3.org/1999/02/22-rdf-syntax-ns#"
   xmlns:svg="http://www.w3.org/2000/svg"
   xmlns="http://www.w3.org/2000/svg"
   xmlns:sodipodi="http://sodipodi.sourceforge.net/DTD/sodipodi-0.dtd"
   xmlns:inkscape="http://www.inkscape.org/namespaces/inkscape"
   width="210mm"
   height="297mm"
   viewBox="0 0 210 297"
   version="1.1"
   id="svg8"
   sodipodi:docname="Fossil2.svg"
   inkscape:version="0.92.3 (2405546, 2018-03-11)">
  <defs
     id="defs2" />
  <sodipodi:namedview
     id="base"
     pagecolor="#ffffff"
     bordercolor="#666666"
     borderopacity="1.0"
     inkscape:pageopacity="0.0"
     inkscape:pageshadow="2"
     inkscape:zoom="0.5"
     inkscape:cx="366.62557"
     inkscape:cy="611.48411"
     inkscape:document-units="mm"
     inkscape:current-layer="layer1"
     showgrid="false"
     inkscape:window-width="1366"
     inkscape:window-height="718"
     inkscape:window-x="0"
     inkscape:window-y="22"
     inkscape:window-maximized="1"
     showguides="false" />
  <metadata
     id="metadata5">
    <rdf:RDF>
      <cc:Work
         rdf:about="">
        <dc:format>image/svg+xml</dc:format>
        <dc:type
           rdf:resource="http://purl.org/dc/dcmitype/StillImage" />
        <dc:title />
      </cc:Work>
    </rdf:RDF>
  </metadata>
  <g
     inkscape:label="Ebene 1"
     inkscape:groupmode="layer"
     id="layer1">
    <path
       id="rect839-5-5"
       style="fill:none;stroke:#000000;stroke-width:0.15309395;stroke-opacity:1"
       d="m 30.911115,166.77141 h 5.846906 v 2.8469 h -5.846906 z m 24.757438,0 h 5.846906 v 2.8469 h -5.846906 z m -11.962848,34.79747 h 5.846906 v 2.84691 H 43.705705 Z M 32.482736,163.42875 h 28.404647 c 4.502075,0 8.126488,3.62441 8.126488,8.12649 v 28.40464 c 0,4.50208 -3.624413,8.12649 -8.126488,8.12649 H 32.482736 c -4.502075,0 -8.126488,-3.62441 -8.126488,-8.12649 v -28.40464 c 0,-4.50208 3.624413,-8.12649 8.126488,-8.12649 z"
       inkscape:connector-curvature="0" />
    <path
       id="rect839-5-3-9"
       style="fill:none;stroke:#000000;stroke-width:0.15309395;stroke-opacity:1"
       d="m 139.1201,199.05145 h 5.8469 v 2.8469 h -5.8469 z m -12.79459,-34.79753 h 5.8469 v 2.84691 h -5.8469 z m 24.75743,0 h 5.84691 v 2.84691 h -5.84691 z m -16.55564,29.53914 c 2.20623,1.58709 4.85438,2.4428 7.57215,2.44687 7.17969,1.3e-4 13.00009,-5.82 13.00024,-12.99966 1.3e-4,-7.17984 -5.82035,-13.00029 -13.00024,-13.00016 -7.17969,1.6e-4 -12.99986,5.82053 -12.99972,13.00016 0.006,2.6798 0.83932,5.29237 2.38693,7.48013 m 3.04064,3.07266 -10.82156,10.8215 c 1.22574,0.71466 2.65225,1.12551 4.17907,1.12551 h 28.42928 c 4.59008,0 8.28528,-3.69518 8.28528,-8.28524 V 169.0252 c 0,-4.59009 -3.6952,-8.28528 -8.28528,-8.28528 h -28.42928 c -4.59008,0 -8.28528,3.69519 -8.28528,8.28528 v 28.42963 c 0,1.48094 0.38668,2.86736 1.06195,4.06795 l 10.82518,-10.80238"
       inkscape:connector-curvature="0" />
    <path
       style="fill:none;stroke:#000000;stroke-width:0.21144842;stroke-opacity:1"
       d="m 76.035669,166.94123 v 2.83704 H 75.04038 c -1.243772,0 -2.245341,1.00106 -2.245341,2.24482 v 27.5115 c 0,1.24377 1.001569,2.24482 2.245341,2.24482 h 0.995289 v 2.81637 h 5.847188 v -2.81637 h 0.995286 c 1.243761,0 2.245341,-1.00105 2.245341,-2.24482 v -27.5115 c 0,-1.24376 -1.00158,-2.24482 -2.245341,-2.24482 h -0.995286 v -2.83704 z"
       id="rect946"
       inkscape:connector-curvature="0" />
    <path
       id="rect839-5-7"
       style="fill:none;stroke:#000000;stroke-width:0.15309395;stroke-opacity:1"
       d="m 57.939056,226.94711 h 5.846907 v 2.84691 h -5.846907 z m 0.250492,-91.22657 v -5.78299 h 5.783 v 5.78299 m -26.360442,14.45793 c -12.185105,-2.2e-4 -22.063161,15.95615 -22.063186,35.63942 2.1e-5,17.50052 7.808719,32.05488 18.104855,35.06751 m 0.01183,14.58853 c -17.13858,-3.09968 -30.7731038,-24.13875 -30.7731031,-49.6934 7e-7,-27.39023 15.2316201,-49.6504 34.1468371,-50.12796 m -3.373734,85.24604 h 49.797383 m 0,14.57532 H 33.665606 m 49.748931,-14.43547 c 3.98448,0 7.21454,3.23006 7.214541,7.21454 -1e-6,3.98448 -3.230061,7.21454 -7.214541,7.21454 m -46.343303,-99.7486 21.118314,0.002 m 5.783,0 19.527832,-0.11177 m -0.03462,14.7207 -45.853652,-0.1514 m 45.888274,-14.5693 c 4.056386,0 7.344736,3.28835 7.344731,7.34474 -10e-7,4.05638 -3.288349,7.34473 -7.344731,7.34473" />
    <path
       id="rect839-5-7-0"
       style="fill:none;stroke:#000000;stroke-width:0.15309395;stroke-opacity:1"
       d="m 147.13449,226.54083 h 5.84691 v 2.8469 h -5.84691 z m 12.23105,-91.24729 v -5.783 h 5.78299 v 5.783 m -30.54012,1e-5 v -5.783 h 5.783 v 5.783 m -13.56554,14.51074 c -12.18517,-2.2e-4 -22.06329,15.95615 -22.06331,35.63942 2e-5,17.50052 7.80876,32.05488 18.10496,35.06751 m 0.0118,14.58853 c -17.13868,-3.09968 -30.77325,-24.13875 -30.773249,-49.6934 10e-7,-27.39023 15.231679,-49.6504 34.146999,-50.12796 m -3.37375,85.24604 49.74921,0.13985 m 0.0485,14.43547 h -49.79766 m 49.74921,-14.43547 c 3.98453,0 7.21463,3.23006 7.21463,7.21454 0,3.98448 -3.18165,7.22093 -7.16618,7.22093 m -46.42391,-99.82136 8.35534,0.0152 m 5.783,0 18.97413,-1e-5 m 5.78299,0 7.56587,-0.0585 m 0,14.68947 -45.88853,-0.12017 m 45.88853,-14.5693 c 4.05644,0 7.34483,3.28835 7.34482,7.34474 0,4.05638 -3.28839,7.34473 -7.34482,7.34473"
       inkscape:connector-curvature="0" />
  </g>
</svg>
